<?xml version="1.0" encoding="UTF-8" standalone="no"?>
<svg
   xmlns:dc="http://purl.org/dc/elements/1.1/"
   xmlns:cc="http://creativecommons.org/ns#"
   xmlns:rdf="http://www.w3.org/1999/02/22-rdf-syntax-ns#"
   xmlns:svg="http://www.w3.org/2000/svg"
   xmlns="http://www.w3.org/2000/svg"
   xmlns:xlink="http://www.w3.org/1999/xlink"
   xmlns:sodipodi="http://sodipodi.sourceforge.net/DTD/sodipodi-0.dtd"
   xmlns:inkscape="http://www.inkscape.org/namespaces/inkscape"
   inkscape:version="1.0beta2 (2b71d25, 2019-12-03)"
   sodipodi:docname="spirograph.svg"
   viewBox="0 0 125.39059 109.57267"
   height="109.57267"
   width="125.39059"
   xml:space="preserve"
   id="svg833"
   version="1.1"><metadata
     id="metadata839"><rdf:RDF><cc:Work
         rdf:about=""><dc:format>image/svg+xml</dc:format><dc:type
           rdf:resource="http://purl.org/dc/dcmitype/StillImage" /><dc:title></dc:title></cc:Work></rdf:RDF></metadata><defs
     id="defs837"><clipPath
       id="clipPath851"
       clipPathUnits="userSpaceOnUse"><path
         inkscape:connector-curvature="0"
         id="path849"
         d="m 550.934,1426.15 c 2.488,-1.04 4.972,-2.07 7.464,-3.1 4.434,13.56 8.868,27.11 13.301,40.67 -1.117,0.42 -2.234,0.85 -3.355,1.27 -5.801,-12.95 -11.606,-25.9 -17.41,-38.84 z m -79.387,-25.71 c -0.418,2.04 -0.84,4.09 -1.258,6.14 -13.043,-2.35 -26.086,-4.7 -39.129,-7.06 0.524,-2.55 1.051,-5.1 1.574,-7.65 12.934,2.85 25.875,5.71 38.813,8.57 z m -6.625,233.92 c 0.5,-1.97 0.992,-3.94 1.488,-5.91 13.176,2.19 26.344,4.38 39.52,6.58 -0.539,2.68 -1.082,5.35 -1.617,8.03 -13.129,-2.9 -26.262,-5.8 -39.391,-8.7 z m 135.844,-76.1 c -4.028,23.79 -22.414,26.1 -35.102,34.18 10.535,-10.26 21.07,-20.51 35.102,-34.18 z m -264.668,-84.01 c 3.422,-21.32 22.363,-23.22 31.265,-34.95 1.239,1.22 2.481,2.44 3.723,3.66 -10.895,9.75 -21.793,19.5 -34.988,31.29 z m 108.293,166.43 c 0.574,-1.52 1.144,-3.05 1.722,-4.57 16.153,4.39 32.305,8.79 48.457,13.2 -0.527,1.98 -1.05,3.96 -1.578,5.94 -18.027,2.24 -32.387,-9.75 -48.601,-14.57 z m -94.192,-80.63 c 1.496,-0.37 2.992,-0.75 4.489,-1.13 4.058,15.86 8.121,31.72 12.175,47.59 -18.683,-12.14 -11.925,-30.76 -16.664,-46.46 z m 141.344,-166.03 c -0.637,1.44 -1.273,2.89 -1.91,4.34 -16,-4.34 -32,-8.66 -48,-13 0.597,-2.1 1.199,-4.21 1.801,-6.31 17.757,-1.2 32.289,9.2 48.109,14.97 z m 95.09,79.65 c -1.52,0.44 -3.035,0.88 -4.547,1.32 -4.242,-15.61 -8.488,-31.22 -12.727,-46.83 19.786,11.24 11.625,30.33 17.274,45.51 z m -253.199,56.3 c 1.605,-0.15 3.211,-0.29 4.82,-0.44 3.117,23.78 6.242,47.55 9.363,71.33 -2.722,0.36 -5.453,0.71 -8.179,1.07 -6.004,-23.44 -3,-48.11 -6.004,-71.96 z m 270.007,-30.13 c -1.953,0.23 -3.906,0.45 -5.863,0.68 -2.672,-21.95 -5.344,-43.88 -8.012,-65.82 2.536,-0.29 5.075,-0.58 7.606,-0.86 5.82,21.59 3.996,44.02 6.269,66 z m -119.179,164.45 c -17.699,7.65 -49.899,-6.68 -64.672,-25.62 21.5,8.51 41.094,16.28 64.672,25.62 z m 34.199,-273.18 c -0.648,1.62 -1.297,3.25 -1.953,4.88 -20.242,-8.14 -40.492,-16.27 -60.738,-24.41 0.796,-1.99 1.593,-3.99 2.39,-5.98 24.379,-2.2 39.863,17.86 60.301,25.51 z m 34.25,233.84 c -1.324,-1.5 -2.652,-3.01 -3.977,-4.51 17.289,-13.57 34.586,-27.15 51.875,-40.72 1.34,1.66 2.684,3.32 4.024,4.98 -9.235,23.22 -36.953,24 -51.922,40.25 z m -216.133,-170 c -1.859,-2.01 -3.726,-4.03 -5.594,-6.05 13.887,-21.66 40.688,-26.32 61.766,-38.56 -18.727,14.87 -37.445,29.75 -56.172,44.61 z m -17.89,62.47 c 2.347,-0.12 4.703,-0.22 7.05,-0.33 0,24.69 0,49.38 0,74.07 -2.004,0.05 -4.004,0.09 -6.008,0.14 -13.07,-24.3 4.071,-49.38 -1.042,-73.88 z m 154.085,-159.15 c 13.891,-8.59 55.149,15.05 72,39.39 -25.562,-13.99 -47.562,-26.02 -72,-39.39 z m -11.918,316.56 c -1.628,3.68 -3.253,7.37 -4.878,11.05 -23.743,-9.5 -42.211,-28.54 -63.5,-42.46 0.816,-1.51 1.628,-3.01 2.449,-4.51 21.976,11.97 43.953,23.94 65.929,35.92 z m 149.743,-230.71 c 2.406,-0.26 4.808,-0.53 7.215,-0.79 9.406,27.8 -2.797,55.71 -7.215,83.57 0,-27.59 0,-55.19 0,-82.78 z m -205.856,-59.08 c 0.633,1.44 1.27,2.89 1.903,4.33 -24.637,14.76 -49.274,29.52 -73.911,44.28 -1.285,-2.15 -2.566,-4.31 -3.855,-6.46 18.726,-24.94 51.156,-27.14 75.863,-42.15 z m 201.121,214.84 c -2.195,18.43 -49.648,45.28 -80.55,48.06 27.339,-16.31 52.558,-31.36 80.55,-48.06 z M 494.805,1347.16 c 0.238,-1.96 0.484,-3.93 0.726,-5.89 6.293,0.35 14.711,-1.78 18.528,1.48 19.054,16.29 36.902,33.98 55.175,51.19 -1.144,1.36 -2.285,2.72 -3.429,4.08 -23.664,-16.95 -47.332,-33.91 -71,-50.86 z m -52.887,340.56 c -0.703,2.57 -1.398,5.15 -2.105,7.72 -7.059,-2.14 -15.676,-2.42 -20.891,-6.77 -16.371,-13.66 -31.539,-28.79 -46.965,-43.56 -1.937,-1.85 -2.66,-4.98 -3.937,-7.52 0.769,-0.6 1.543,-1.19 2.312,-1.79 23.863,17.31 47.727,34.62 71.586,51.92 z M 603.359,1625 c 1.454,1.53 2.907,3.07 4.356,4.6 -3.688,5.24 -6.328,13.54 -11.227,15.21 -28.347,9.64 -57.23,17.71 -85.929,26.32 -0.446,-1.17 -0.891,-2.33 -1.336,-3.5 31.379,-14.2 62.757,-28.42 94.136,-42.63 z M 333.941,1409.46 c -1.363,-1.02 -2.73,-2.04 -4.093,-3.07 2.718,-5.38 4.269,-14.21 8.351,-15.6 29.516,-10.06 59.543,-18.61 89.406,-27.65 0.438,1.21 0.868,2.41 1.301,3.61 -31.656,14.24 -63.308,28.48 -94.965,42.71 z m -26.304,171.06 c -1.879,0.45 -3.758,0.91 -5.641,1.37 -2.875,-5.61 -9.035,-11.86 -8.086,-16.71 5.742,-29.31 13.121,-58.29 19.953,-87.39 1.379,0.24 2.762,0.48 4.145,0.72 -3.457,34 -6.914,68.01 -10.371,102.01 z M 629.18,1454.74 c 1.715,-0.43 3.425,-0.86 5.14,-1.29 2.907,4.98 9.032,10.59 8.203,14.86 -5.664,29.26 -12.781,58.23 -19.433,87.3 -1.488,-0.31 -2.977,-0.62 -4.469,-0.93 3.524,-33.31 7.039,-66.63 10.559,-99.94 z m -343.145,112.17 c -12.695,-8.07 -16.312,-15.83 -10.722,-28.12 5.878,-12.94 9.789,-26.77 14.777,-40.13 5.355,-14.35 10.965,-28.61 16.465,-42.92 1.527,0.53 3.054,1.06 4.582,1.6 -8.254,36.03 -16.512,72.07 -25.102,109.57 z m 344.75,12.23 c -1.758,-0.43 -3.512,-0.86 -5.265,-1.29 8.23,-36.1 16.46,-72.21 24.695,-108.32 1.734,-0.33 3.469,-0.65 5.195,-0.99 2.82,6.36 9.426,13.92 7.848,18.88 -9.805,30.9 -21.442,61.21 -32.473,91.72 z M 516.973,1335.07 c 12.613,-7.59 19.847,-7.07 27.492,2.64 17.258,21.95 35.765,42.9 53.617,64.38 2.078,2.51 3.246,5.78 4.832,8.7 -0.922,0.61 -1.844,1.23 -2.773,1.85 -27.164,-25.34 -54.328,-50.68 -83.168,-77.57 z m -28.301,355.52 c -0.387,-1.57 -0.777,-3.14 -1.16,-4.71 37.836,-11.71 75.668,-23.41 113.504,-35.12 1.273,1.79 2.554,3.59 3.832,5.38 -5,5.19 -9.262,13.72 -15.125,15.01 -33.473,7.44 -67.328,13.14 -101.051,19.44 z m -159.371,-68.43 c 1.09,-1.2 2.179,-2.4 3.265,-3.6 28.61,26.73 57.219,53.44 85.829,80.17 -1.098,2.23 -2.2,4.47 -3.297,6.7 -6.805,-1.88 -16.039,-1.57 -20.016,-5.98 -22.621,-25.14 -43.988,-51.41 -65.781,-77.29 z m 124.461,-278.75 c 0.386,1.31 0.773,2.61 1.164,3.91 -39.781,12.18 -79.559,24.36 -119.758,36.66 -1.813,-16.52 7.297,-21.03 18.715,-23.07 33.273,-5.92 66.586,-11.68 99.879,-17.5 z m -147.086,270.61 c 1.406,-0.96 2.816,-1.92 4.222,-2.88 26.743,31.84 53.481,63.68 81.082,96.54 -15.453,6.38 -24.242,4.22 -31.703,-8.99 -10.496,-18.59 -23.429,-35.79 -35.023,-53.78 -6.504,-10.1 -12.406,-20.58 -18.578,-30.89 z m 364.949,-126.58 c 13.066,11.06 15.254,19.85 8.652,32.09 -15.8,29.28 -30.394,59.21 -45.707,88.76 -1.015,1.96 -3.949,2.93 -9.336,6.71 16.168,-44.46 30.86,-84.86 46.391,-127.56 z M 544.133,1326.98 c 17.117,-8 26.664,-3.67 32.937,10.43 2.371,5.34 6.676,9.81 9.879,14.81 14.922,23.3 29.77,46.66 44.645,69.98 -1.36,1.01 -2.715,2.01 -4.074,3.02 -27.426,-32.31 -54.852,-64.62 -83.387,-98.24 z m -238.59,93.49 c 1.668,0.7 3.336,1.41 5,2.12 -15.035,41.07 -30.07,82.15 -45.105,123.23 -1.946,0.02 -3.895,0.04 -5.844,0.05 -2.41,-7.18 -8.91,-16.27 -6.586,-21.23 16.5,-35.19 34.805,-69.55 52.535,-104.17 z m 150.234,286.89 c -0.152,-1.3 -0.304,-2.6 -0.457,-3.9 46.375,-8.27 92.746,-16.55 139.118,-24.83 1.25,2.07 2.5,4.14 3.746,6.22 -6.934,5.4 -13.512,14.88 -20.86,15.52 -40.41,3.53 -81.011,4.88 -121.547,6.99 z m 18.789,-374.65 c -42.054,7.44 -87.339,15.46 -134.312,23.78 3.262,-16.17 9.586,-24.06 24.43,-23.91 37.504,0.38 75.007,0.13 109.882,0.13 z m 192.286,121.95 c -1.278,0.82 -2.551,1.64 -3.821,2.47 -29.226,-44.99 -58.457,-89.99 -88.953,-136.93 14.965,-1.26 26.328,-2.74 32.988,11.15 19.754,41.19 39.832,82.22 59.786,123.31 z m -234.039,266 c 0.085,-1.61 0.175,-3.22 0.269,-4.82 50.356,-2.76 100.711,-5.52 154.981,-8.5 -9.618,14 -12.629,25.8 -29.071,24.08 -41.976,-4.38 -84.109,-7.27 -126.179,-10.76 z M 269,1578.84 c 1.277,-0.87 2.559,-1.73 3.836,-2.6 29.426,45.46 58.852,90.93 88.84,137.25 -21.649,3.77 -26.074,2.05 -33.715,-13.33 -10.563,-21.25 -20.66,-42.73 -31.023,-64.09 -9.266,-19.1 -18.622,-38.15 -27.938,-57.23 z m 355.98,74.71 c -1.578,-0.78 -3.148,-1.57 -4.726,-2.36 23.496,-46.24 46.988,-92.47 70.484,-138.71 2.075,-0.16 4.149,-0.3 6.219,-0.45 1.438,9.35 7.359,21.47 3.57,27.59 -23.984,38.72 -50.121,76.1 -75.547,113.93 z M 350.035,1327.64 c 14.176,-26.28 14.141,-26.02 37.953,-22.63 9.977,1.41 20.141,1.45 30.215,2.19 28.754,2.14 57.512,4.32 86.266,6.48 -0.016,1.75 -0.028,3.5 -0.039,5.25 -50.446,2.84 -100.895,5.69 -154.395,8.71 z m -34.57,48.16 c 1.258,0.76 2.523,1.52 3.781,2.28 -24.523,48.19 -49.051,96.37 -73.578,144.56 -2.398,-0.17 -4.789,-0.34 -7.184,-0.51 -0.867,-9.46 -5.929,-21.55 -1.918,-27.96 25.172,-40.16 52.372,-79.06 78.899,-118.37 z m 7.723,-33.09 c 1.269,1.22 2.539,2.43 3.808,3.65 -33.305,49.28 -66.609,98.56 -100.746,149.07 -14.625,-25.4 -14.527,-25.31 1.23,-42.74 8.383,-9.27 16.329,-18.94 24.54,-28.37 23.703,-27.22 47.445,-54.41 71.168,-81.61 z m 367.437,132.23 c -1.656,0.6 -3.312,1.2 -4.965,1.8 -25.621,-52.19 -51.234,-104.38 -77.988,-158.89 20.199,0.41 33.594,3.26 37.199,23.06 1.891,10.37 7.031,20.13 10.488,30.24 11.809,34.58 23.52,69.19 35.266,103.79 z m -77.539,217.38 c -1.227,-1.19 -2.457,-2.38 -3.684,-3.58 33.11,-48.97 66.211,-97.95 100.293,-148.37 13.219,15.84 15.828,28.19 0.688,40.57 -4.078,3.33 -7.02,8.06 -10.539,12.09 -28.91,33.1 -57.836,66.2 -86.758,99.29 z m -41.492,45.35 c -10.813,18.36 -21.223,26.92 -40.93,20.2 -14.996,-5.12 -31.5,-5.68 -47.223,-8.83 -31.671,-6.33 -63.269,-13.05 -94.902,-19.61 0.227,-1.32 0.449,-2.65 0.676,-3.98 59.746,4 119.484,8.01 182.379,12.22 z M 244.648,1556.29 c 1.637,-0.51 3.274,-1.02 4.903,-1.52 26.113,53.31 52.226,106.63 79.394,162.11 -20.289,-0.15 -33.457,-2.77 -37.054,-23.08 -2.356,-13.28 -8.883,-25.8 -13.344,-38.73 -11.359,-32.91 -22.606,-65.85 -33.899,-98.78 z m 303.387,-251.66 c -0.137,1.61 -0.277,3.22 -0.414,4.83 -59.476,-4.02 -118.953,-8.05 -180.949,-12.25 7.207,-12.89 11.863,-25.13 26.449,-22.47 51.731,9.43 103.289,19.85 154.914,29.89 z m 97.539,17.89 c 26.906,0.32 32.91,5.37 36.903,27.26 3.183,17.46 7.347,34.74 10.964,52.13 7.528,36.18 14.977,72.38 22.457,108.57 -1.625,0.44 -3.253,0.88 -4.878,1.32 -21.735,-62.86 -43.465,-125.71 -65.446,-189.28 z M 220.73,1524.08 c 1.672,-0.22 3.336,-0.45 5.008,-0.67 21.836,62.85 43.664,125.71 65.754,189.29 -28.086,-0.79 -33.703,-5.79 -37.644,-29.11 -2.758,-16.31 -6.782,-32.4 -10.153,-48.6 -7.683,-36.97 -15.312,-73.94 -22.965,-110.91 z m 370.372,210.86 c -1.024,-0.98 -2.047,-1.96 -3.075,-2.95 46.012,-52.92 92.016,-105.84 138.707,-159.54 11.633,20.21 9.129,34.66 -7.07,47.59 -14.875,11.87 -28.531,25.27 -42.726,37.99 -28.614,25.64 -57.219,51.27 -85.836,76.91 z M 209.813,1462.59 c -11.598,-28.77 -11.122,-30.81 9.386,-49.27 17.239,-15.51 34.391,-31.12 51.653,-46.59 23.578,-21.15 47.218,-42.22 70.836,-63.32 1.16,1.13 2.316,2.27 3.472,3.4 -44.578,51.31 -89.16,102.62 -135.347,155.78 z m 338.847,305.63 c -14.324,24.09 -19.441,26.21 -41.215,18.57 -8.406,-2.95 -16.902,-5.64 -25.371,-8.4 -46.59,-15.25 -93.187,-30.47 -139.785,-45.71 0.352,-1.39 0.707,-2.79 1.063,-4.19 68.23,13.21 136.468,26.41 205.308,39.73 z m 45.856,-465.28 c -0.336,1.2 -0.668,2.41 -1.004,3.61 -68.399,-13.37 -136.797,-26.75 -207.598,-40.59 12.813,-16.6 22.531,-26.65 43.445,-18.78 40.614,15.25 82.364,27.48 123.59,41.13 13.946,4.61 27.715,9.73 41.567,14.63 z m -17.02,461.69 c -1.262,-1.58 -2.523,-3.15 -3.785,-4.73 55.277,-49.64 110.551,-99.28 165.906,-148.99 14.207,27.69 1.871,41.91 -18.66,54.75 -25.703,16.07 -50.062,34.28 -75.012,51.56 -22.808,15.8 -45.632,31.6 -68.449,47.41 z M 196.797,1424.1 c -9.867,-33.56 -9.918,-33.63 14,-50.54 31.055,-21.95 62.117,-43.89 93.336,-65.61 18.562,-12.91 37.426,-25.4 56.148,-38.07 1.09,1.48 2.18,2.95 3.27,4.43 -55.262,49.64 -110.52,99.28 -166.754,149.79 z m 540.316,128.7 c -1.39,0.22 -2.777,0.43 -4.164,0.64 -16.054,-74.42 -32.105,-148.83 -48.293,-223.87 27.707,2.7 35.735,11.01 37.196,34.02 1.503,23.66 4.402,47.23 6.293,70.87 3.156,39.44 5.996,78.9 8.968,118.34 z m -484.832,153.7 c -31.226,-6.34 -35.633,-11.83 -37.547,-38.37 -3.632,-50.34 -7.941,-100.63 -12.031,-150.93 -0.965,-11.89 -2.16,-23.74 -3.25,-35.61 1.453,-0.18 2.91,-0.37 4.371,-0.55 16,74.46 32.004,148.92 48.457,225.46 z m 387.957,-401.88 c -0.55,1.47 -1.101,2.95 -1.652,4.42 -74.586,-24.22 -149.172,-48.44 -224.742,-72.99 18.402,-23.12 25.66,-25.17 47.793,-14.94 12.394,5.73 24.633,11.81 37.011,17.58 47.18,22.01 94.395,43.96 141.59,65.93 z m -115.394,494.65 c -24.672,23.78 -27.688,24.75 -50.965,13.95 -56.051,-26 -111.984,-52.25 -167.895,-78.55 -3.031,-1.43 -5.433,-4.21 -8.125,-6.35 0.543,-0.72 1.086,-1.44 1.629,-2.16 74.356,24.13 148.703,48.25 225.356,73.11 z m 13.394,8.01 c -1.015,-1.43 -2.031,-2.85 -3.047,-4.28 70.856,-49.55 141.707,-99.1 213.438,-149.27 6.762,36.99 5.234,39.79 -24.481,55.03 -23.312,11.96 -46.339,24.48 -69.492,36.76 -38.804,20.59 -77.609,41.18 -116.418,61.76 z M 210.762,1694.39 c -36.516,-15.83 -37.055,-16.11 -35.977,-50.08 2.094,-66.04 4.61,-132.07 7.067,-198.09 0.203,-5.5 1.257,-10.95 1.921,-16.43 1.047,0.08 2.09,0.16 3.137,0.24 7.875,87.29 15.75,174.59 23.852,264.36 z m -22.887,-313.03 c -6.113,-39.16 -5.727,-39.3 24.703,-55.32 50.547,-26.6 100.844,-53.68 151.293,-80.47 11.559,-6.14 23.32,-11.89 34.984,-17.82 0.786,1.41 1.559,2.81 2.336,4.21 -70.746,49.55 -141.5,99.1 -213.316,149.4 z m 538.141,-40.48 c 35.257,13.84 36.91,15.97 35.769,47.7 -2.433,67.9 -5.051,135.79 -7.687,203.68 -0.16,4.06 -1.149,8.1 -1.75,12.14 -0.883,-0.13 -1.766,-0.25 -2.653,-0.38 -7.832,-87.01 -15.656,-174.01 -23.679,-263.14 z m -473.825,381.48 c 0.801,-1.4 1.602,-2.79 2.411,-4.18 79,36.84 158.003,73.67 238.75,111.32 -33.661,22.49 -33.875,22.84 -63.844,4.4 -48.195,-29.66 -96.102,-59.79 -144.063,-89.83 -11.222,-7.03 -22.179,-14.47 -33.254,-21.71 z m 191.332,-516.93 c 22.915,-18.61 40.497,-21.53 64.387,-5.12 54.008,37.09 110.738,70.23 166.289,105.09 3.403,2.14 6.16,5.3 9.223,7.99 -0.719,0.96 -1.434,1.91 -2.152,2.86 -78.551,-36.61 -157.094,-73.23 -237.747,-110.82 z m -276.918,471.6 c -11.656,-9.33 -20.707,-14.98 -27.542,-22.62 -4.329,-4.83 -8.293,-13.04 -7.415,-19.01 10.497,-71.64 21.864,-143.16 33.192,-214.68 1.723,-10.91 4.394,-21.67 6.625,-32.51 1.664,0.3 3.332,0.59 4.996,0.88 -3.234,94.48 -6.465,188.95 -9.856,287.94 z m 288.551,180.52 c -8.562,3.91 -13.59,5.63 -18.023,8.33 -16.817,10.21 -30.164,7.85 -45.668,-5.56 -39.629,-34.26 -81.117,-66.37 -121.824,-99.39 -21.871,-17.73 -43.664,-35.56 -65.493,-53.35 1.043,-1.47 2.086,-2.94 3.125,-4.42 81.5,50.76 163,101.52 247.883,154.39 z m 314.821,-499.94 c 9.707,7.71 14.843,12.8 20.875,16.39 14.113,8.42 16.738,18.75 13.664,35.42 -10.985,59.64 -19.481,119.75 -29.067,179.65 -3.429,21.44 -7.269,42.81 -10.922,64.21 -1.531,-0.23 -3.058,-0.45 -4.589,-0.67 3.289,-96.72 6.582,-193.44 10.039,-295 z m -37.434,-30.54 c -1.191,1.5 -2.383,2.99 -3.574,4.49 -81.688,-51.04 -163.379,-102.09 -247.918,-154.91 11.578,-4.67 19.277,-6.65 25.762,-10.62 12.816,-7.83 21.8,-5.05 33.046,4.82 26.86,23.58 55.485,45.15 83.317,67.63 36.492,29.48 72.918,59.06 109.367,88.59 z m -241.098,518.17 c -0.726,-1.4 -1.461,-2.8 -2.191,-4.2 88.129,-46.78 176.254,-93.56 265.211,-140.77 3.07,32.01 -6.281,48.57 -36.848,58.97 -76.312,25.95 -150.894,57 -226.172,86 z m -46.074,-655.32 c 0.598,1.31 1.192,2.62 1.781,3.92 -88.066,46.77 -176.132,93.55 -266.601,141.6 0.695,-8.63 1.222,-12.73 1.32,-16.85 0.488,-20.89 8.516,-33.26 30.633,-40.51 46.305,-15.18 91.242,-34.51 136.812,-51.95 31.957,-12.24 64.036,-24.15 96.055,-36.21 z m -34.691,693.8 c -12.797,3.01 -21.438,3.44 -28.477,7.02 -17.269,8.78 -27.75,1.64 -39.742,-11.01 -54.879,-57.91 -110.762,-114.86 -166.246,-172.19 -7.895,-8.16 -15.574,-16.53 -23.356,-24.8 1.364,-1.41 2.723,-2.82 4.082,-4.23 83.286,67.36 166.567,134.71 253.739,205.21 z m 115.703,-732.35 c 11.668,-3.04 19.148,-3.71 25.363,-6.86 19.07,-9.67 30.844,-1.83 44.234,12.52 47.196,50.55 95.918,99.67 144,149.39 16.321,16.87 32.458,33.92 48.672,50.89 -1.074,1.15 -2.152,2.3 -3.23,3.45 -85.348,-68.99 -170.699,-137.98 -259.039,-209.39 z m -404.356,499.41 c -11.105,-11.66 -20.625,-19.78 -27.5973,-29.69 -4.0156,-5.71 -6.957,-15.16 -5.1914,-21.48 23.6917,-84.7 48.2817,-169.15 72.7027,-253.63 2.567,-8.87 5.504,-17.62 8.27,-26.43 1.352,0.37 2.711,0.75 4.062,1.12 -17.164,108.43 -34.328,216.87 -52.246,330.11 z m 692.637,-266.67 c 10.258,10.83 17.211,19.6 25.609,26.66 9.668,8.12 10.547,15.94 6.911,28.02 -19.2,63.72 -37.172,127.81 -55.586,191.76 -8.469,29.42 -16.965,58.82 -25.45,88.23 -1.445,-0.34 -2.894,-0.68 -4.339,-1.01 17.351,-109.57 34.711,-219.14 52.855,-333.66 z M 485.508,1161.15 c 0.508,1.75 1.019,3.5 1.527,5.25 -101.082,38.74 -202.164,77.48 -307.047,117.68 3.825,-13.81 7.192,-22.2 8.313,-30.87 1.879,-14.56 9.441,-20.87 23.695,-24.29 73.438,-17.64 146.613,-36.37 219.891,-54.66 17.847,-4.46 35.746,-8.74 53.621,-13.11 z m 270.93,589.48 c -3.325,12.71 -6.375,20.5 -7.25,28.52 -1.918,17.55 -12.024,24.24 -28.489,28.17 -82.613,19.67 -164.957,40.49 -247.402,60.89 -9.024,2.23 -18.07,4.35 -27.109,6.52 -0.368,-1.51 -0.727,-3.01 -1.094,-4.52 102.289,-39.28 204.574,-78.57 311.344,-119.58 z M 77.3086,1615.29 c -6.1211,-7.28 -9.832,-12.44 -14.2813,-16.86 -18.6289,-18.49 -19.2968,-36.28 -7.9882,-61.31 40.3906,-89.41 77.3399,-180.36 115.6759,-270.69 1.75,-4.13 4.351,-7.9 6.558,-11.83 1.04,0.62 2.075,1.24 3.11,1.86 -34.031,118.48 -68.063,236.95 -103.0744,358.83 z M 749.82,1806.74 c -7.05,16.22 -12.535,26.77 -16.211,37.9 -3.574,10.82 -9.23,16.27 -21.168,17.48 -30.726,3.11 -61.308,7.66 -91.968,11.45 -53.078,6.56 -106.176,13 -159.274,19.43 -23.543,2.85 -47.101,5.56 -70.656,8.34 -0.273,-1.66 -0.547,-3.32 -0.82,-4.98 118.304,-29.45 236.605,-58.89 360.097,-89.62 z m 90.563,-413.64 c -1.356,1.11 -2.703,2.23 -4.055,3.35 -85.172,-88.26 -170.344,-176.52 -257.269,-266.59 15.867,-2.27 28.097,-3.81 40.25,-5.82 11.558,-1.9 19.609,1.1 27.136,11.33 36.66,49.76 74.317,98.79 111.543,148.13 27.524,36.49 54.934,73.06 82.395,109.6 z M 96.3516,1641.87 c 1.2812,-1.23 2.5586,-2.45 3.8394,-3.67 85.2,88.26 170.399,176.53 257.668,266.93 -15.781,2.21 -28,3.5 -40.062,5.72 -12.578,2.3 -20.629,-2.03 -28.344,-12.49 -36.371,-49.28 -73.652,-97.9 -110.547,-146.79 -27.566,-36.53 -55.039,-73.13 -82.5544,-109.7 z M 557.52,1131.41 c 0.273,1.3 0.546,2.61 0.82,3.92 -122.254,30.58 -244.512,61.15 -367.91,92.02 7.652,-44.38 17.64,-53.89 57.152,-56.79 1.781,-0.13 3.57,-0.27 5.344,-0.5 101.531,-12.88 203.058,-25.77 304.594,-38.65 z m 301.984,287.32 c 11.18,14.54 20.562,24.66 27.273,36.32 3.45,6 5.039,15.94 2.508,22.05 -34.922,84.1 -70.664,167.87 -106.32,251.68 -6.602,15.52 -13.723,30.82 -20.602,46.23 -1.504,-0.56 -3.008,-1.12 -4.508,-1.67 33.458,-116.72 66.915,-233.45 101.649,-354.61 z M 887.59,1435 c -1.633,0.92 -3.266,1.84 -4.899,2.76 -80.66,-107.01 -161.324,-214.02 -244.589,-324.5 19.73,0 34.535,0.6 49.261,-0.19 10.95,-0.6 16.867,3.45 22.395,13.11 46.133,80.65 92.972,160.89 139.496,241.31 12.957,22.4 25.566,45 38.336,67.51 z m -588.68,486.79 c -18.437,0 -31.527,-0.86 -44.445,0.23 -14.199,1.19 -22.262,-3.79 -29.559,-16.59 -50.758,-89.04 -102.523,-177.5 -153.863,-266.22 -7.5703,-13.08 -14.5821,-26.48 -21.8594,-39.74 1.4727,-0.94 2.9336,-1.88 4.4023,-2.82 80.7151,106.98 161.4341,213.96 245.3241,325.14 z M 613.293,1113.2 c -0.016,1.6 -0.031,3.21 -0.039,4.82 -135.582,16.68 -271.16,33.38 -410.332,50.51 9.211,-15.95 15.891,-29.9 24.914,-42.13 4.461,-6.04 13.215,-12.6 20.062,-12.65 121.793,-0.75 243.594,-0.55 365.395,-0.55 z m -422.117,75.81 c 1.351,0.7 2.707,1.39 4.062,2.08 C 141.797,1317.04 88.3555,1443 33.3086,1572.71 23.9609,1556.76 17.5078,1544.06 9.4375,1532.48 1.77344,1521.48 3.33984,1512.84 9.88672,1501.61 56.1211,1422.37 101.5,1342.63 147.324,1263.14 c 14.34,-24.86 29.219,-49.42 43.852,-74.13 z m 128.344,732.75 c -0.161,-1.42 -0.321,-2.83 -0.477,-4.25 137.047,-16.97 274.094,-33.94 414.867,-51.38 -8.164,14.03 -15.808,24.14 -20.262,35.51 -6.863,17.52 -18.843,20.6 -36.23,20.5 -119.297,-0.72 -238.602,-0.38 -357.898,-0.38 z m 583.625,-459.05 c 10.21,16.86 16.988,29.29 24.976,40.88 6.746,9.8 5.703,17.87 -0.129,27.87 -48.297,82.93 -96.058,166.17 -144.09,249.24 -12.851,22.23 -26.086,44.25 -39.144,66.37 -1.32,-0.69 -2.641,-1.39 -3.961,-2.08 53.351,-125.64 106.707,-251.27 162.348,-382.28 z m -355.711,30.14 c -4.231,23.63 -7.161,44.92 -12.262,65.67 -1.66,6.77 -7.766,14.83 -13.949,17.64 -18.328,8.35 -37.496,15.1 -56.813,20.88 -5.68,1.7 -14.414,0.09 -19.219,-3.44 -15.8,-11.61 -31.336,-23.9 -45.089,-37.79 -5.598,-5.66 -9.383,-16.34 -8.739,-24.31 1.575,-19.46 5.61,-38.81 10.039,-57.89 1.235,-5.32 6.368,-11.73 11.328,-13.84 19.672,-8.34 39.809,-15.75 60.192,-22.18 5.242,-1.65 13.508,-0.45 17.816,2.83 16.571,12.58 32.293,26.33 47.883,40.13 4.074,3.61 6.535,9.04 8.813,12.3 z m -80.125,-386 c -72.836,0 -145.676,0.42 -218.508,-0.37 -13.957,-0.15 -21.149,4.53 -27.91,16.35 -69.774,121.99 -139.2816,244.14 -211.08631,364.92 -13.70313,23.05 -12.60157,37.95 0.54691,60.2 72.4257,122.53 142.7614,246.28 214.3984,369.28 3.086,5.3 11.93,10.26 18.109,10.29 149.793,0.64 299.586,0.75 449.375,0.13 7.051,-0.03 17.047,-6.02 20.653,-12.17 55.676,-95.06 110.476,-190.62 165.582,-286.02 18.773,-32.49 37.648,-64.93 56.844,-97.17 5.578,-9.37 7.414,-17.36 1.32,-27.82 -74,-127.15 -147.746,-254.44 -220.981,-382.03 -6.875,-11.98 -14.343,-16.31 -28.125,-16.17 -73.402,0.7 -146.808,0.33 -220.218,0.33 0,0.08 0,0.17 0,0.25 z" /></clipPath><linearGradient
       xlink:href="#linearGradient877"
       id="linearGradient859"
       spreadMethod="pad"
       gradientTransform="matrix(940.427,0,0,-940.427,0,1517.16)"
       gradientUnits="userSpaceOnUse"
       y2="0"
       x2="1"
       y1="0"
       x1="0"><stop
         id="stop853"
         offset="0"
         style="stop-opacity:1;stop-color:#fff200" /><stop
         id="stop855"
         offset="0.472036"
         style="stop-opacity:1;stop-color:#4aa0de" /><stop
         id="stop857"
         offset="1"
         style="stop-opacity:1;stop-color:#ec008c" /></linearGradient><clipPath
       id="clipPath869"
       clipPathUnits="userSpaceOnUse"><path
         inkscape:connector-curvature="0"
         id="path867"
         d="m 744.758,1517.16 c 0,-151.62 -122.918,-274.54 -274.543,-274.54 -151.625,0 -274.547,122.92 -274.547,274.54 0,151.63 122.922,274.55 274.547,274.55 151.625,0 274.543,-122.92 274.543,-274.55 z" /></clipPath><linearGradient
       id="linearGradient877"
       spreadMethod="pad"
       gradientTransform="matrix(449.825,314.971,314.971,-449.825,245.301,1359.68)"
       gradientUnits="userSpaceOnUse"
       y2="0"
       x2="1"
       y1="0"
       x1="0"><stop
         id="stop871"
         offset="0"
         style="stop-opacity:1;stop-color:#fff200" /><stop
         id="stop873"
         offset="0.472036"
         style="stop-opacity:1;stop-color:#4aa0de" /><stop
         id="stop875"
         offset="1"
         style="stop-opacity:1;stop-color:#ec008c" /></linearGradient></defs><sodipodi:namedview
     inkscape:current-layer="g847"
     inkscape:window-maximized="0"
     inkscape:window-y="23"
     inkscape:window-x="0"
     inkscape:cy="35.19037"
     inkscape:cx="147.9679"
     inkscape:zoom="2.61"
     fit-margin-bottom="0"
     fit-margin-right="0"
     fit-margin-left="0"
     fit-margin-top="0"
     showgrid="false"
     id="namedview835"
     inkscape:window-height="1124"
     inkscape:window-width="1884"
     inkscape:pageshadow="2"
     inkscape:pageopacity="0"
     guidetolerance="10"
     gridtolerance="10"
     objecttolerance="10"
     borderopacity="1"
     inkscape:document-rotation="0"
     bordercolor="#666666"
     pagecolor="#ffffff" /><g
     transform="matrix(1.3333333,0,0,-1.3333333,-51.645442,163.73038)"
     inkscape:label="ink_ext_XXXXXX"
     inkscape:groupmode="layer"
     id="g841"><g
       transform="scale(0.1)"
       id="g843"><g
         id="g845"><g
           transform="translate(387.34151,-700.08391)"
           clip-path="url(#clipPath851)"
           id="g847"><path
             inkscape:connector-curvature="0"
             id="path861"
             style="fill:url(#linearGradient859);fill-opacity:1;fill-rule:nonzero;stroke:none"
             d="m 550.934,1426.15 c 2.488,-1.04 4.972,-2.07 7.464,-3.1 4.434,13.56 8.868,27.11 13.301,40.67 -1.117,0.42 -2.234,0.85 -3.355,1.27 -5.801,-12.95 -11.606,-25.9 -17.41,-38.84 z m -79.387,-25.71 c -0.418,2.04 -0.84,4.09 -1.258,6.14 -13.043,-2.35 -26.086,-4.7 -39.129,-7.06 0.524,-2.55 1.051,-5.1 1.574,-7.65 12.934,2.85 25.875,5.71 38.813,8.57 z m -6.625,233.92 c 0.5,-1.97 0.992,-3.94 1.488,-5.91 13.176,2.19 26.344,4.38 39.52,6.58 -0.539,2.68 -1.082,5.35 -1.617,8.03 -13.129,-2.9 -26.262,-5.8 -39.391,-8.7 z m 135.844,-76.1 c -4.028,23.79 -22.414,26.1 -35.102,34.18 10.535,-10.26 21.07,-20.51 35.102,-34.18 z m -264.668,-84.01 c 3.422,-21.32 22.363,-23.22 31.265,-34.95 1.239,1.22 2.481,2.44 3.723,3.66 -10.895,9.75 -21.793,19.5 -34.988,31.29 z m 108.293,166.43 c 0.574,-1.52 1.144,-3.05 1.722,-4.57 16.153,4.39 32.305,8.79 48.457,13.2 -0.527,1.98 -1.05,3.96 -1.578,5.94 -18.027,2.24 -32.387,-9.75 -48.601,-14.57 z m -94.192,-80.63 c 1.496,-0.37 2.992,-0.75 4.489,-1.13 4.058,15.86 8.121,31.72 12.175,47.59 -18.683,-12.14 -11.925,-30.76 -16.664,-46.46 z m 141.344,-166.03 c -0.637,1.44 -1.273,2.89 -1.91,4.34 -16,-4.34 -32,-8.66 -48,-13 0.597,-2.1 1.199,-4.21 1.801,-6.31 17.757,-1.2 32.289,9.2 48.109,14.97 z m 95.09,79.65 c -1.52,0.44 -3.035,0.88 -4.547,1.32 -4.242,-15.61 -8.488,-31.22 -12.727,-46.83 19.786,11.24 11.625,30.33 17.274,45.51 z m -253.199,56.3 c 1.605,-0.15 3.211,-0.29 4.82,-0.44 3.117,23.78 6.242,47.55 9.363,71.33 -2.722,0.36 -5.453,0.71 -8.179,1.07 -6.004,-23.44 -3,-48.11 -6.004,-71.96 z m 270.007,-30.13 c -1.953,0.23 -3.906,0.45 -5.863,0.68 -2.672,-21.95 -5.344,-43.88 -8.012,-65.82 2.536,-0.29 5.075,-0.58 7.606,-0.86 5.82,21.59 3.996,44.02 6.269,66 z m -119.179,164.45 c -17.699,7.65 -49.899,-6.68 -64.672,-25.62 21.5,8.51 41.094,16.28 64.672,25.62 z m 34.199,-273.18 c -0.648,1.62 -1.297,3.25 -1.953,4.88 -20.242,-8.14 -40.492,-16.27 -60.738,-24.41 0.796,-1.99 1.593,-3.99 2.39,-5.98 24.379,-2.2 39.863,17.86 60.301,25.51 z m 34.25,233.84 c -1.324,-1.5 -2.652,-3.01 -3.977,-4.51 17.289,-13.57 34.586,-27.15 51.875,-40.72 1.34,1.66 2.684,3.32 4.024,4.98 -9.235,23.22 -36.953,24 -51.922,40.25 z m -216.133,-170 c -1.859,-2.01 -3.726,-4.03 -5.594,-6.05 13.887,-21.66 40.688,-26.32 61.766,-38.56 -18.727,14.87 -37.445,29.75 -56.172,44.61 z m -17.89,62.47 c 2.347,-0.12 4.703,-0.22 7.05,-0.33 0,24.69 0,49.38 0,74.07 -2.004,0.05 -4.004,0.09 -6.008,0.14 -13.07,-24.3 4.071,-49.38 -1.042,-73.88 z m 154.085,-159.15 c 13.891,-8.59 55.149,15.05 72,39.39 -25.562,-13.99 -47.562,-26.02 -72,-39.39 z m -11.918,316.56 c -1.628,3.68 -3.253,7.37 -4.878,11.05 -23.743,-9.5 -42.211,-28.54 -63.5,-42.46 0.816,-1.51 1.628,-3.01 2.449,-4.51 21.976,11.97 43.953,23.94 65.929,35.92 z m 149.743,-230.71 c 2.406,-0.26 4.808,-0.53 7.215,-0.79 9.406,27.8 -2.797,55.71 -7.215,83.57 0,-27.59 0,-55.19 0,-82.78 z m -205.856,-59.08 c 0.633,1.44 1.27,2.89 1.903,4.33 -24.637,14.76 -49.274,29.52 -73.911,44.28 -1.285,-2.15 -2.566,-4.31 -3.855,-6.46 18.726,-24.94 51.156,-27.14 75.863,-42.15 z m 201.121,214.84 c -2.195,18.43 -49.648,45.28 -80.55,48.06 27.339,-16.31 52.558,-31.36 80.55,-48.06 z M 494.805,1347.16 c 0.238,-1.96 0.484,-3.93 0.726,-5.89 6.293,0.35 14.711,-1.78 18.528,1.48 19.054,16.29 36.902,33.98 55.175,51.19 -1.144,1.36 -2.285,2.72 -3.429,4.08 -23.664,-16.95 -47.332,-33.91 -71,-50.86 z m -52.887,340.56 c -0.703,2.57 -1.398,5.15 -2.105,7.72 -7.059,-2.14 -15.676,-2.42 -20.891,-6.77 -16.371,-13.66 -31.539,-28.79 -46.965,-43.56 -1.937,-1.85 -2.66,-4.98 -3.937,-7.52 0.769,-0.6 1.543,-1.19 2.312,-1.79 23.863,17.31 47.727,34.62 71.586,51.92 z M 603.359,1625 c 1.454,1.53 2.907,3.07 4.356,4.6 -3.688,5.24 -6.328,13.54 -11.227,15.21 -28.347,9.64 -57.23,17.71 -85.929,26.32 -0.446,-1.17 -0.891,-2.33 -1.336,-3.5 31.379,-14.2 62.757,-28.42 94.136,-42.63 z M 333.941,1409.46 c -1.363,-1.02 -2.73,-2.04 -4.093,-3.07 2.718,-5.38 4.269,-14.21 8.351,-15.6 29.516,-10.06 59.543,-18.61 89.406,-27.65 0.438,1.21 0.868,2.41 1.301,3.61 -31.656,14.24 -63.308,28.48 -94.965,42.71 z m -26.304,171.06 c -1.879,0.45 -3.758,0.91 -5.641,1.37 -2.875,-5.61 -9.035,-11.86 -8.086,-16.71 5.742,-29.31 13.121,-58.29 19.953,-87.39 1.379,0.24 2.762,0.48 4.145,0.72 -3.457,34 -6.914,68.01 -10.371,102.01 z M 629.18,1454.74 c 1.715,-0.43 3.425,-0.86 5.14,-1.29 2.907,4.98 9.032,10.59 8.203,14.86 -5.664,29.26 -12.781,58.23 -19.433,87.3 -1.488,-0.31 -2.977,-0.62 -4.469,-0.93 3.524,-33.31 7.039,-66.63 10.559,-99.94 z m -343.145,112.17 c -12.695,-8.07 -16.312,-15.83 -10.722,-28.12 5.878,-12.94 9.789,-26.77 14.777,-40.13 5.355,-14.35 10.965,-28.61 16.465,-42.92 1.527,0.53 3.054,1.06 4.582,1.6 -8.254,36.03 -16.512,72.07 -25.102,109.57 z m 344.75,12.23 c -1.758,-0.43 -3.512,-0.86 -5.265,-1.29 8.23,-36.1 16.46,-72.21 24.695,-108.32 1.734,-0.33 3.469,-0.65 5.195,-0.99 2.82,6.36 9.426,13.92 7.848,18.88 -9.805,30.9 -21.442,61.21 -32.473,91.72 z M 516.973,1335.07 c 12.613,-7.59 19.847,-7.07 27.492,2.64 17.258,21.95 35.765,42.9 53.617,64.38 2.078,2.51 3.246,5.78 4.832,8.7 -0.922,0.61 -1.844,1.23 -2.773,1.85 -27.164,-25.34 -54.328,-50.68 -83.168,-77.57 z m -28.301,355.52 c -0.387,-1.57 -0.777,-3.14 -1.16,-4.71 37.836,-11.71 75.668,-23.41 113.504,-35.12 1.273,1.79 2.554,3.59 3.832,5.38 -5,5.19 -9.262,13.72 -15.125,15.01 -33.473,7.44 -67.328,13.14 -101.051,19.44 z m -159.371,-68.43 c 1.09,-1.2 2.179,-2.4 3.265,-3.6 28.61,26.73 57.219,53.44 85.829,80.17 -1.098,2.23 -2.2,4.47 -3.297,6.7 -6.805,-1.88 -16.039,-1.57 -20.016,-5.98 -22.621,-25.14 -43.988,-51.41 -65.781,-77.29 z m 124.461,-278.75 c 0.386,1.31 0.773,2.61 1.164,3.91 -39.781,12.18 -79.559,24.36 -119.758,36.66 -1.813,-16.52 7.297,-21.03 18.715,-23.07 33.273,-5.92 66.586,-11.68 99.879,-17.5 z m -147.086,270.61 c 1.406,-0.96 2.816,-1.92 4.222,-2.88 26.743,31.84 53.481,63.68 81.082,96.54 -15.453,6.38 -24.242,4.22 -31.703,-8.99 -10.496,-18.59 -23.429,-35.79 -35.023,-53.78 -6.504,-10.1 -12.406,-20.58 -18.578,-30.89 z m 364.949,-126.58 c 13.066,11.06 15.254,19.85 8.652,32.09 -15.8,29.28 -30.394,59.21 -45.707,88.76 -1.015,1.96 -3.949,2.93 -9.336,6.71 16.168,-44.46 30.86,-84.86 46.391,-127.56 z M 544.133,1326.98 c 17.117,-8 26.664,-3.67 32.937,10.43 2.371,5.34 6.676,9.81 9.879,14.81 14.922,23.3 29.77,46.66 44.645,69.98 -1.36,1.01 -2.715,2.01 -4.074,3.02 -27.426,-32.31 -54.852,-64.62 -83.387,-98.24 z m -238.59,93.49 c 1.668,0.7 3.336,1.41 5,2.12 -15.035,41.07 -30.07,82.15 -45.105,123.23 -1.946,0.02 -3.895,0.04 -5.844,0.05 -2.41,-7.18 -8.91,-16.27 -6.586,-21.23 16.5,-35.19 34.805,-69.55 52.535,-104.17 z m 150.234,286.89 c -0.152,-1.3 -0.304,-2.6 -0.457,-3.9 46.375,-8.27 92.746,-16.55 139.118,-24.83 1.25,2.07 2.5,4.14 3.746,6.22 -6.934,5.4 -13.512,14.88 -20.86,15.52 -40.41,3.53 -81.011,4.88 -121.547,6.99 z m 18.789,-374.65 c -42.054,7.44 -87.339,15.46 -134.312,23.78 3.262,-16.17 9.586,-24.06 24.43,-23.91 37.504,0.38 75.007,0.13 109.882,0.13 z m 192.286,121.95 c -1.278,0.82 -2.551,1.64 -3.821,2.47 -29.226,-44.99 -58.457,-89.99 -88.953,-136.93 14.965,-1.26 26.328,-2.74 32.988,11.15 19.754,41.19 39.832,82.22 59.786,123.31 z m -234.039,266 c 0.085,-1.61 0.175,-3.22 0.269,-4.82 50.356,-2.76 100.711,-5.52 154.981,-8.5 -9.618,14 -12.629,25.8 -29.071,24.08 -41.976,-4.38 -84.109,-7.27 -126.179,-10.76 z M 269,1578.84 c 1.277,-0.87 2.559,-1.73 3.836,-2.6 29.426,45.46 58.852,90.93 88.84,137.25 -21.649,3.77 -26.074,2.05 -33.715,-13.33 -10.563,-21.25 -20.66,-42.73 -31.023,-64.09 -9.266,-19.1 -18.622,-38.15 -27.938,-57.23 z m 355.98,74.71 c -1.578,-0.78 -3.148,-1.57 -4.726,-2.36 23.496,-46.24 46.988,-92.47 70.484,-138.71 2.075,-0.16 4.149,-0.3 6.219,-0.45 1.438,9.35 7.359,21.47 3.57,27.59 -23.984,38.72 -50.121,76.1 -75.547,113.93 z M 350.035,1327.64 c 14.176,-26.28 14.141,-26.02 37.953,-22.63 9.977,1.41 20.141,1.45 30.215,2.19 28.754,2.14 57.512,4.32 86.266,6.48 -0.016,1.75 -0.028,3.5 -0.039,5.25 -50.446,2.84 -100.895,5.69 -154.395,8.71 z m -34.57,48.16 c 1.258,0.76 2.523,1.52 3.781,2.28 -24.523,48.19 -49.051,96.37 -73.578,144.56 -2.398,-0.17 -4.789,-0.34 -7.184,-0.51 -0.867,-9.46 -5.929,-21.55 -1.918,-27.96 25.172,-40.16 52.372,-79.06 78.899,-118.37 z m 7.723,-33.09 c 1.269,1.22 2.539,2.43 3.808,3.65 -33.305,49.28 -66.609,98.56 -100.746,149.07 -14.625,-25.4 -14.527,-25.31 1.23,-42.74 8.383,-9.27 16.329,-18.94 24.54,-28.37 23.703,-27.22 47.445,-54.41 71.168,-81.61 z m 367.437,132.23 c -1.656,0.6 -3.312,1.2 -4.965,1.8 -25.621,-52.19 -51.234,-104.38 -77.988,-158.89 20.199,0.41 33.594,3.26 37.199,23.06 1.891,10.37 7.031,20.13 10.488,30.24 11.809,34.58 23.52,69.19 35.266,103.79 z m -77.539,217.38 c -1.227,-1.19 -2.457,-2.38 -3.684,-3.58 33.11,-48.97 66.211,-97.95 100.293,-148.37 13.219,15.84 15.828,28.19 0.688,40.57 -4.078,3.33 -7.02,8.06 -10.539,12.09 -28.91,33.1 -57.836,66.2 -86.758,99.29 z m -41.492,45.35 c -10.813,18.36 -21.223,26.92 -40.93,20.2 -14.996,-5.12 -31.5,-5.68 -47.223,-8.83 -31.671,-6.33 -63.269,-13.05 -94.902,-19.61 0.227,-1.32 0.449,-2.65 0.676,-3.98 59.746,4 119.484,8.01 182.379,12.22 z M 244.648,1556.29 c 1.637,-0.51 3.274,-1.02 4.903,-1.52 26.113,53.31 52.226,106.63 79.394,162.11 -20.289,-0.15 -33.457,-2.77 -37.054,-23.08 -2.356,-13.28 -8.883,-25.8 -13.344,-38.73 -11.359,-32.91 -22.606,-65.85 -33.899,-98.78 z m 303.387,-251.66 c -0.137,1.61 -0.277,3.22 -0.414,4.83 -59.476,-4.02 -118.953,-8.05 -180.949,-12.25 7.207,-12.89 11.863,-25.13 26.449,-22.47 51.731,9.43 103.289,19.85 154.914,29.89 z m 97.539,17.89 c 26.906,0.32 32.91,5.37 36.903,27.26 3.183,17.46 7.347,34.74 10.964,52.13 7.528,36.18 14.977,72.38 22.457,108.57 -1.625,0.44 -3.253,0.88 -4.878,1.32 -21.735,-62.86 -43.465,-125.71 -65.446,-189.28 z M 220.73,1524.08 c 1.672,-0.22 3.336,-0.45 5.008,-0.67 21.836,62.85 43.664,125.71 65.754,189.29 -28.086,-0.79 -33.703,-5.79 -37.644,-29.11 -2.758,-16.31 -6.782,-32.4 -10.153,-48.6 -7.683,-36.97 -15.312,-73.94 -22.965,-110.91 z m 370.372,210.86 c -1.024,-0.98 -2.047,-1.96 -3.075,-2.95 46.012,-52.92 92.016,-105.84 138.707,-159.54 11.633,20.21 9.129,34.66 -7.07,47.59 -14.875,11.87 -28.531,25.27 -42.726,37.99 -28.614,25.64 -57.219,51.27 -85.836,76.91 z M 209.813,1462.59 c -11.598,-28.77 -11.122,-30.81 9.386,-49.27 17.239,-15.51 34.391,-31.12 51.653,-46.59 23.578,-21.15 47.218,-42.22 70.836,-63.32 1.16,1.13 2.316,2.27 3.472,3.4 -44.578,51.31 -89.16,102.62 -135.347,155.78 z m 338.847,305.63 c -14.324,24.09 -19.441,26.21 -41.215,18.57 -8.406,-2.95 -16.902,-5.64 -25.371,-8.4 -46.59,-15.25 -93.187,-30.47 -139.785,-45.71 0.352,-1.39 0.707,-2.79 1.063,-4.19 68.23,13.21 136.468,26.41 205.308,39.73 z m 45.856,-465.28 c -0.336,1.2 -0.668,2.41 -1.004,3.61 -68.399,-13.37 -136.797,-26.75 -207.598,-40.59 12.813,-16.6 22.531,-26.65 43.445,-18.78 40.614,15.25 82.364,27.48 123.59,41.13 13.946,4.61 27.715,9.73 41.567,14.63 z m -17.02,461.69 c -1.262,-1.58 -2.523,-3.15 -3.785,-4.73 55.277,-49.64 110.551,-99.28 165.906,-148.99 14.207,27.69 1.871,41.91 -18.66,54.75 -25.703,16.07 -50.062,34.28 -75.012,51.56 -22.808,15.8 -45.632,31.6 -68.449,47.41 z M 196.797,1424.1 c -9.867,-33.56 -9.918,-33.63 14,-50.54 31.055,-21.95 62.117,-43.89 93.336,-65.61 18.562,-12.91 37.426,-25.4 56.148,-38.07 1.09,1.48 2.18,2.95 3.27,4.43 -55.262,49.64 -110.52,99.28 -166.754,149.79 z m 540.316,128.7 c -1.39,0.22 -2.777,0.43 -4.164,0.64 -16.054,-74.42 -32.105,-148.83 -48.293,-223.87 27.707,2.7 35.735,11.01 37.196,34.02 1.503,23.66 4.402,47.23 6.293,70.87 3.156,39.44 5.996,78.9 8.968,118.34 z m -484.832,153.7 c -31.226,-6.34 -35.633,-11.83 -37.547,-38.37 -3.632,-50.34 -7.941,-100.63 -12.031,-150.93 -0.965,-11.89 -2.16,-23.74 -3.25,-35.61 1.453,-0.18 2.91,-0.37 4.371,-0.55 16,74.46 32.004,148.92 48.457,225.46 z m 387.957,-401.88 c -0.55,1.47 -1.101,2.95 -1.652,4.42 -74.586,-24.22 -149.172,-48.44 -224.742,-72.99 18.402,-23.12 25.66,-25.17 47.793,-14.94 12.394,5.73 24.633,11.81 37.011,17.58 47.18,22.01 94.395,43.96 141.59,65.93 z m -115.394,494.65 c -24.672,23.78 -27.688,24.75 -50.965,13.95 -56.051,-26 -111.984,-52.25 -167.895,-78.55 -3.031,-1.43 -5.433,-4.21 -8.125,-6.35 0.543,-0.72 1.086,-1.44 1.629,-2.16 74.356,24.13 148.703,48.25 225.356,73.11 z m 13.394,8.01 c -1.015,-1.43 -2.031,-2.85 -3.047,-4.28 70.856,-49.55 141.707,-99.1 213.438,-149.27 6.762,36.99 5.234,39.79 -24.481,55.03 -23.312,11.96 -46.339,24.48 -69.492,36.76 -38.804,20.59 -77.609,41.18 -116.418,61.76 z M 210.762,1694.39 c -36.516,-15.83 -37.055,-16.11 -35.977,-50.08 2.094,-66.04 4.61,-132.07 7.067,-198.09 0.203,-5.5 1.257,-10.95 1.921,-16.43 1.047,0.08 2.09,0.16 3.137,0.24 7.875,87.29 15.75,174.59 23.852,264.36 z m -22.887,-313.03 c -6.113,-39.16 -5.727,-39.3 24.703,-55.32 50.547,-26.6 100.844,-53.68 151.293,-80.47 11.559,-6.14 23.32,-11.89 34.984,-17.82 0.786,1.41 1.559,2.81 2.336,4.21 -70.746,49.55 -141.5,99.1 -213.316,149.4 z m 538.141,-40.48 c 35.257,13.84 36.91,15.97 35.769,47.7 -2.433,67.9 -5.051,135.79 -7.687,203.68 -0.16,4.06 -1.149,8.1 -1.75,12.14 -0.883,-0.13 -1.766,-0.25 -2.653,-0.38 -7.832,-87.01 -15.656,-174.01 -23.679,-263.14 z m -473.825,381.48 c 0.801,-1.4 1.602,-2.79 2.411,-4.18 79,36.84 158.003,73.67 238.75,111.32 -33.661,22.49 -33.875,22.84 -63.844,4.4 -48.195,-29.66 -96.102,-59.79 -144.063,-89.83 -11.222,-7.03 -22.179,-14.47 -33.254,-21.71 z m 191.332,-516.93 c 22.915,-18.61 40.497,-21.53 64.387,-5.12 54.008,37.09 110.738,70.23 166.289,105.09 3.403,2.14 6.16,5.3 9.223,7.99 -0.719,0.96 -1.434,1.91 -2.152,2.86 -78.551,-36.61 -157.094,-73.23 -237.747,-110.82 z m -276.918,471.6 c -11.656,-9.33 -20.707,-14.98 -27.542,-22.62 -4.329,-4.83 -8.293,-13.04 -7.415,-19.01 10.497,-71.64 21.864,-143.16 33.192,-214.68 1.723,-10.91 4.394,-21.67 6.625,-32.51 1.664,0.3 3.332,0.59 4.996,0.88 -3.234,94.48 -6.465,188.95 -9.856,287.94 z m 288.551,180.52 c -8.562,3.91 -13.59,5.63 -18.023,8.33 -16.817,10.21 -30.164,7.85 -45.668,-5.56 -39.629,-34.26 -81.117,-66.37 -121.824,-99.39 -21.871,-17.73 -43.664,-35.56 -65.493,-53.35 1.043,-1.47 2.086,-2.94 3.125,-4.42 81.5,50.76 163,101.52 247.883,154.39 z m 314.821,-499.94 c 9.707,7.71 14.843,12.8 20.875,16.39 14.113,8.42 16.738,18.75 13.664,35.42 -10.985,59.64 -19.481,119.75 -29.067,179.65 -3.429,21.44 -7.269,42.81 -10.922,64.21 -1.531,-0.23 -3.058,-0.45 -4.589,-0.67 3.289,-96.72 6.582,-193.44 10.039,-295 z m -37.434,-30.54 c -1.191,1.5 -2.383,2.99 -3.574,4.49 -81.688,-51.04 -163.379,-102.09 -247.918,-154.91 11.578,-4.67 19.277,-6.65 25.762,-10.62 12.816,-7.83 21.8,-5.05 33.046,4.82 26.86,23.58 55.485,45.15 83.317,67.63 36.492,29.48 72.918,59.06 109.367,88.59 z m -241.098,518.17 c -0.726,-1.4 -1.461,-2.8 -2.191,-4.2 88.129,-46.78 176.254,-93.56 265.211,-140.77 3.07,32.01 -6.281,48.57 -36.848,58.97 -76.312,25.95 -150.894,57 -226.172,86 z m -46.074,-655.32 c 0.598,1.31 1.192,2.62 1.781,3.92 -88.066,46.77 -176.132,93.55 -266.601,141.6 0.695,-8.63 1.222,-12.73 1.32,-16.85 0.488,-20.89 8.516,-33.26 30.633,-40.51 46.305,-15.18 91.242,-34.51 136.812,-51.95 31.957,-12.24 64.036,-24.15 96.055,-36.21 z m -34.691,693.8 c -12.797,3.01 -21.438,3.44 -28.477,7.02 -17.269,8.78 -27.75,1.64 -39.742,-11.01 -54.879,-57.91 -110.762,-114.86 -166.246,-172.19 -7.895,-8.16 -15.574,-16.53 -23.356,-24.8 1.364,-1.41 2.723,-2.82 4.082,-4.23 83.286,67.36 166.567,134.71 253.739,205.21 z m 115.703,-732.35 c 11.668,-3.04 19.148,-3.71 25.363,-6.86 19.07,-9.67 30.844,-1.83 44.234,12.52 47.196,50.55 95.918,99.67 144,149.39 16.321,16.87 32.458,33.92 48.672,50.89 -1.074,1.15 -2.152,2.3 -3.23,3.45 -85.348,-68.99 -170.699,-137.98 -259.039,-209.39 z m -404.356,499.41 c -11.105,-11.66 -20.625,-19.78 -27.5973,-29.69 -4.0156,-5.71 -6.957,-15.16 -5.1914,-21.48 23.6917,-84.7 48.2817,-169.15 72.7027,-253.63 2.567,-8.87 5.504,-17.62 8.27,-26.43 1.352,0.37 2.711,0.75 4.062,1.12 -17.164,108.43 -34.328,216.87 -52.246,330.11 z m 692.637,-266.67 c 10.258,10.83 17.211,19.6 25.609,26.66 9.668,8.12 10.547,15.94 6.911,28.02 -19.2,63.72 -37.172,127.81 -55.586,191.76 -8.469,29.42 -16.965,58.82 -25.45,88.23 -1.445,-0.34 -2.894,-0.68 -4.339,-1.01 17.351,-109.57 34.711,-219.14 52.855,-333.66 z M 485.508,1161.15 c 0.508,1.75 1.019,3.5 1.527,5.25 -101.082,38.74 -202.164,77.48 -307.047,117.68 3.825,-13.81 7.192,-22.2 8.313,-30.87 1.879,-14.56 9.441,-20.87 23.695,-24.29 73.438,-17.64 146.613,-36.37 219.891,-54.66 17.847,-4.46 35.746,-8.74 53.621,-13.11 z m 270.93,589.48 c -3.325,12.71 -6.375,20.5 -7.25,28.52 -1.918,17.55 -12.024,24.24 -28.489,28.17 -82.613,19.67 -164.957,40.49 -247.402,60.89 -9.024,2.23 -18.07,4.35 -27.109,6.52 -0.368,-1.51 -0.727,-3.01 -1.094,-4.52 102.289,-39.28 204.574,-78.57 311.344,-119.58 z M 77.3086,1615.29 c -6.1211,-7.28 -9.832,-12.44 -14.2813,-16.86 -18.6289,-18.49 -19.2968,-36.28 -7.9882,-61.31 40.3906,-89.41 77.3399,-180.36 115.6759,-270.69 1.75,-4.13 4.351,-7.9 6.558,-11.83 1.04,0.62 2.075,1.24 3.11,1.86 -34.031,118.48 -68.063,236.95 -103.0744,358.83 z M 749.82,1806.74 c -7.05,16.22 -12.535,26.77 -16.211,37.9 -3.574,10.82 -9.23,16.27 -21.168,17.48 -30.726,3.11 -61.308,7.66 -91.968,11.45 -53.078,6.56 -106.176,13 -159.274,19.43 -23.543,2.85 -47.101,5.56 -70.656,8.34 -0.273,-1.66 -0.547,-3.32 -0.82,-4.98 118.304,-29.45 236.605,-58.89 360.097,-89.62 z m 90.563,-413.64 c -1.356,1.11 -2.703,2.23 -4.055,3.35 -85.172,-88.26 -170.344,-176.52 -257.269,-266.59 15.867,-2.27 28.097,-3.81 40.25,-5.82 11.558,-1.9 19.609,1.1 27.136,11.33 36.66,49.76 74.317,98.79 111.543,148.13 27.524,36.49 54.934,73.06 82.395,109.6 z M 96.3516,1641.87 c 1.2812,-1.23 2.5586,-2.45 3.8394,-3.67 85.2,88.26 170.399,176.53 257.668,266.93 -15.781,2.21 -28,3.5 -40.062,5.72 -12.578,2.3 -20.629,-2.03 -28.344,-12.49 -36.371,-49.28 -73.652,-97.9 -110.547,-146.79 -27.566,-36.53 -55.039,-73.13 -82.5544,-109.7 z M 557.52,1131.41 c 0.273,1.3 0.546,2.61 0.82,3.92 -122.254,30.58 -244.512,61.15 -367.91,92.02 7.652,-44.38 17.64,-53.89 57.152,-56.79 1.781,-0.13 3.57,-0.27 5.344,-0.5 101.531,-12.88 203.058,-25.77 304.594,-38.65 z m 301.984,287.32 c 11.18,14.54 20.562,24.66 27.273,36.32 3.45,6 5.039,15.94 2.508,22.05 -34.922,84.1 -70.664,167.87 -106.32,251.68 -6.602,15.52 -13.723,30.82 -20.602,46.23 -1.504,-0.56 -3.008,-1.12 -4.508,-1.67 33.458,-116.72 66.915,-233.45 101.649,-354.61 z M 887.59,1435 c -1.633,0.92 -3.266,1.84 -4.899,2.76 -80.66,-107.01 -161.324,-214.02 -244.589,-324.5 19.73,0 34.535,0.6 49.261,-0.19 10.95,-0.6 16.867,3.45 22.395,13.11 46.133,80.65 92.972,160.89 139.496,241.31 12.957,22.4 25.566,45 38.336,67.51 z m -588.68,486.79 c -18.437,0 -31.527,-0.86 -44.445,0.23 -14.199,1.19 -22.262,-3.79 -29.559,-16.59 -50.758,-89.04 -102.523,-177.5 -153.863,-266.22 -7.5703,-13.08 -14.5821,-26.48 -21.8594,-39.74 1.4727,-0.94 2.9336,-1.88 4.4023,-2.82 80.7151,106.98 161.4341,213.96 245.3241,325.14 z M 613.293,1113.2 c -0.016,1.6 -0.031,3.21 -0.039,4.82 -135.582,16.68 -271.16,33.38 -410.332,50.51 9.211,-15.95 15.891,-29.9 24.914,-42.13 4.461,-6.04 13.215,-12.6 20.062,-12.65 121.793,-0.75 243.594,-0.55 365.395,-0.55 z m -422.117,75.81 c 1.351,0.7 2.707,1.39 4.062,2.08 C 141.797,1317.04 88.3555,1443 33.3086,1572.71 23.9609,1556.76 17.5078,1544.06 9.4375,1532.48 1.77344,1521.48 3.33984,1512.84 9.88672,1501.61 56.1211,1422.37 101.5,1342.63 147.324,1263.14 c 14.34,-24.86 29.219,-49.42 43.852,-74.13 z m 128.344,732.75 c -0.161,-1.42 -0.321,-2.83 -0.477,-4.25 137.047,-16.97 274.094,-33.94 414.867,-51.38 -8.164,14.03 -15.808,24.14 -20.262,35.51 -6.863,17.52 -18.843,20.6 -36.23,20.5 -119.297,-0.72 -238.602,-0.38 -357.898,-0.38 z m 583.625,-459.05 c 10.21,16.86 16.988,29.29 24.976,40.88 6.746,9.8 5.703,17.87 -0.129,27.87 -48.297,82.93 -96.058,166.17 -144.09,249.24 -12.851,22.23 -26.086,44.25 -39.144,66.37 -1.32,-0.69 -2.641,-1.39 -3.961,-2.08 53.351,-125.64 106.707,-251.27 162.348,-382.28 z m -355.711,30.14 c -4.231,23.63 -7.161,44.92 -12.262,65.67 -1.66,6.77 -7.766,14.83 -13.949,17.64 -18.328,8.35 -37.496,15.1 -56.813,20.88 -5.68,1.7 -14.414,0.09 -19.219,-3.44 -15.8,-11.61 -31.336,-23.9 -45.089,-37.79 -5.598,-5.66 -9.383,-16.34 -8.739,-24.31 1.575,-19.46 5.61,-38.81 10.039,-57.89 1.235,-5.32 6.368,-11.73 11.328,-13.84 19.672,-8.34 39.809,-15.75 60.192,-22.18 5.242,-1.65 13.508,-0.45 17.816,2.83 16.571,12.58 32.293,26.33 47.883,40.13 4.074,3.61 6.535,9.04 8.813,12.3 z m -80.125,-386 c -72.836,0 -145.676,0.42 -218.508,-0.37 -13.957,-0.15 -21.149,4.53 -27.91,16.35 -69.774,121.99 -139.2816,244.14 -211.08631,364.92 -13.70313,23.05 -12.60157,37.95 0.54691,60.2 72.4257,122.53 142.7614,246.28 214.3984,369.28 3.086,5.3 11.93,10.26 18.109,10.29 149.793,0.64 299.586,0.75 449.375,0.13 7.051,-0.03 17.047,-6.02 20.653,-12.17 55.676,-95.06 110.476,-190.62 165.582,-286.02 18.773,-32.49 37.648,-64.93 56.844,-97.17 5.578,-9.37 7.414,-17.36 1.32,-27.82 -74,-127.15 -147.746,-254.44 -220.981,-382.03 -6.875,-11.98 -14.343,-16.31 -28.125,-16.17 -73.402,0.7 -146.808,0.33 -220.218,0.33 0,0.08 0,0.17 0,0.25" /></g></g><g
         id="g863" /></g></g></svg>
